<svg version="1.1" id="Layer_1" xmlns="http://www.w3.org/2000/svg" xmlns:xlink="http://www.w3.org/1999/xlink" x="0px" y="0px"
	 width="100%" viewBox="0 0 225 225" enable-background="new 0 0 225 225" xml:space="preserve">
<path fill="#FEFEFE" opacity="1.000000" stroke="none" 
	d="
M124.000000,226.000000 
	C82.666672,226.000000 41.833340,226.000000 1.000005,226.000000 
	C1.000004,151.000000 1.000004,76.000015 1.000002,1.000015 
	C75.999992,1.000010 150.999985,1.000010 225.999969,1.000005 
	C225.999985,75.999985 225.999985,150.999969 226.000000,225.999969 
	C192.166672,226.000000 158.333328,226.000000 124.000000,226.000000 
M140.701508,193.675385 
	C140.779617,200.006134 140.830917,206.337357 140.945633,212.667435 
	C141.017227,216.618683 143.500824,218.708923 147.359909,217.957169 
	C148.969345,217.643646 150.509308,216.935760 152.055649,216.341568 
	C199.047333,198.284668 227.413620,149.882217 219.873962,99.970215 
	C212.197144,49.150394 166.781372,1.442301 99.029602,9.333601 
	C48.775867,15.186840 8.521068,59.176163 6.013975,109.382683 
	C3.746161,154.797440 28.877542,195.861572 70.373665,214.461685 
	C73.237808,215.745499 76.178314,216.958237 79.200584,217.764359 
	C82.823265,218.730652 85.752228,217.402695 85.950104,213.386032 
	C86.267212,206.948761 86.035065,200.484436 86.035065,193.999451 
	C81.720268,193.999451 77.762253,193.912415 73.809242,194.016174 
	C62.979858,194.300385 55.299133,189.913345 49.896236,180.178238 
	C46.419281,173.913376 41.116966,168.658981 36.605488,162.973328 
	C35.813583,161.975311 34.886536,161.084549 34.001881,160.122467 
	C38.594635,156.731262 43.320015,156.856384 48.519131,161.264664 
	C52.295204,164.466339 55.571301,168.323654 58.741127,172.160599 
	C65.282661,180.078842 73.490593,181.940353 82.936073,179.047440 
	C84.680573,178.513153 86.474518,176.810715 87.389221,175.169998 
	C89.372620,171.612320 90.802162,167.745865 92.606819,163.669983 
	C90.064873,163.129974 87.350273,162.566391 84.641602,161.975632 
	C71.062607,159.014130 59.231613,153.496948 51.841679,140.786682 
	C45.494003,129.869019 45.254414,118.020126 45.588051,105.971832 
	C45.811718,97.894623 48.306179,90.737007 53.256989,84.295959 
	C54.416985,82.786789 54.830288,80.408752 54.895977,78.407761 
	C55.107376,71.968254 54.608589,65.487000 55.123764,59.081375 
	C55.586849,53.323368 57.840172,51.517723 63.502396,53.156540 
	C70.105530,55.067688 76.253319,58.501778 82.733978,60.911129 
	C85.319756,61.872456 88.374046,62.572598 91.032410,62.173893 
	C105.801468,59.958801 120.571159,59.597721 135.253494,62.230949 
	C139.180847,62.935307 141.993515,62.353001 145.464264,60.632404 
	C151.792343,57.495296 158.515839,55.105007 165.197083,52.751514 
	C168.788788,51.486320 171.632797,52.919598 171.912308,57.002541 
	C172.384750,63.903408 172.420486,70.833138 172.786499,77.742966 
	C172.892731,79.748543 172.908676,82.146805 173.975082,83.648453 
	C179.458344,91.369652 182.321411,100.008408 182.539688,109.283928 
	C183.135910,134.619919 173.125092,154.751907 145.937729,161.203415 
	C142.301285,162.066345 138.648773,162.861450 134.091812,163.894730 
	C140.731491,170.918991 140.680222,179.050674 140.503235,187.225967 
	C140.463638,189.055145 140.622284,190.888611 140.701508,193.675385 
z"/>
<path fill="#010101" opacity="1.000000" stroke="none" 
	d="
M140.695587,193.197739 
	C140.622284,190.888611 140.463638,189.055145 140.503235,187.225967 
	C140.680222,179.050674 140.731491,170.918991 134.091812,163.894730 
	C138.648773,162.861450 142.301285,162.066345 145.937729,161.203415 
	C173.125092,154.751907 183.135910,134.619919 182.539688,109.283928 
	C182.321411,100.008408 179.458344,91.369652 173.975082,83.648453 
	C172.908676,82.146805 172.892731,79.748543 172.786499,77.742966 
	C172.420486,70.833138 172.384750,63.903408 171.912308,57.002541 
	C171.632797,52.919598 168.788788,51.486320 165.197083,52.751514 
	C158.515839,55.105007 151.792343,57.495296 145.464264,60.632404 
	C141.993515,62.353001 139.180847,62.935307 135.253494,62.230949 
	C120.571159,59.597721 105.801468,59.958801 91.032410,62.173893 
	C88.374046,62.572598 85.319756,61.872456 82.733978,60.911129 
	C76.253319,58.501778 70.105530,55.067688 63.502396,53.156540 
	C57.840172,51.517723 55.586849,53.323368 55.123764,59.081375 
	C54.608589,65.487000 55.107376,71.968254 54.895977,78.407761 
	C54.830288,80.408752 54.416985,82.786789 53.256989,84.295959 
	C48.306179,90.737007 45.811718,97.894623 45.588051,105.971832 
	C45.254414,118.020126 45.494003,129.869019 51.841679,140.786682 
	C59.231613,153.496948 71.062607,159.014130 84.641602,161.975632 
	C87.350273,162.566391 90.064873,163.129974 92.606819,163.669983 
	C90.802162,167.745865 89.372620,171.612320 87.389221,175.169998 
	C86.474518,176.810715 84.680573,178.513153 82.936073,179.047440 
	C73.490593,181.940353 65.282661,180.078842 58.741127,172.160599 
	C55.571301,168.323654 52.295204,164.466339 48.519131,161.264664 
	C43.320015,156.856384 38.594635,156.731262 34.001881,160.122467 
	C34.886536,161.084549 35.813583,161.975311 36.605488,162.973328 
	C41.116966,168.658981 46.419281,173.913376 49.896236,180.178238 
	C55.299133,189.913345 62.979858,194.300385 73.809242,194.016174 
	C77.762253,193.912415 81.720268,193.999451 86.035065,193.999451 
	C86.035065,200.484436 86.267212,206.948761 85.950104,213.386032 
	C85.752228,217.402695 82.823265,218.730652 79.200584,217.764359 
	C76.178314,216.958237 73.237808,215.745499 70.373665,214.461685 
	C28.877542,195.861572 3.746161,154.797440 6.013975,109.382683 
	C8.521068,59.176163 48.775867,15.186840 99.029602,9.333601 
	C166.781372,1.442301 212.197144,49.150394 219.873962,99.970215 
	C227.413620,149.882217 199.047333,198.284668 152.055649,216.341568 
	C150.509308,216.935760 148.969345,217.643646 147.359909,217.957169 
	C143.500824,218.708923 141.017227,216.618683 140.945633,212.667435 
	C140.830917,206.337357 140.779617,200.006134 140.695587,193.197739 
z"/>
</svg>